<svg width="25" height="25" viewBox="0 0 25 25" fill="none" xmlns="http://www.w3.org/2000/svg">
<g clip-path="url(#clip0_102_11)">
<path d="M18.022 13.2634C17.8249 13.2634 17.6298 13.2245 17.4478 13.149C17.2658 13.0735 17.1004 12.963 16.9611 12.8236C16.8218 12.6842 16.7113 12.5188 16.636 12.3367C16.5607 12.1546 16.5219 11.9595 16.522 11.7624C16.522 11.5654 16.5609 11.3703 16.6364 11.1882C16.7119 11.0062 16.8224 10.8408 16.9618 10.7016C17.1012 10.5623 17.2666 10.4518 17.4487 10.3765C17.6308 10.3011 17.8259 10.2624 18.023 10.2624C18.4209 10.2626 18.8025 10.4208 19.0838 10.7023C19.3651 10.9838 19.5231 11.3655 19.523 11.7634C19.5228 12.1614 19.3646 12.543 19.0831 12.8243C18.8016 13.1056 18.4199 13.2636 18.022 13.2634ZM12.022 13.2634C11.624 13.2633 11.2424 13.1051 10.9611 12.8236C10.6798 12.5421 10.5218 12.1604 10.522 11.7624C10.5221 11.3645 10.6803 10.9829 10.9618 10.7016C11.2433 10.4203 11.625 10.2623 12.023 10.2624C12.4209 10.2626 12.8025 10.4208 13.0838 10.7023C13.3651 10.9838 13.5231 11.3655 13.523 11.7634C13.5228 12.1614 13.3646 12.543 13.0831 12.8243C12.8016 13.1056 12.4199 13.2636 12.022 13.2634ZM6.02197 13.2634C5.62402 13.2633 5.24241 13.1051 4.96111 12.8236C4.6798 12.5421 4.52184 12.1604 4.52197 11.7624C4.52211 11.3645 4.68032 10.9829 4.96181 10.7016C5.2433 10.4203 5.62502 10.2623 6.02297 10.2624C6.42093 10.2626 6.80254 10.4208 7.08384 10.7023C7.36514 10.9838 7.52311 11.3655 7.52297 11.7634C7.52284 12.1614 7.36462 12.543 7.08313 12.8243C6.80164 13.1056 6.41993 13.2636 6.02197 13.2634ZM12.022 0.763428C5.94697 0.763428 1.02197 5.68843 1.02197 11.7634C1.02197 14.4164 1.96197 16.8494 3.52597 18.7494L2.02197 24.7634L7.35797 21.7144C8.81619 22.404 10.4089 22.7622 12.022 22.7634C18.097 22.7634 23.022 17.8384 23.022 11.7634C23.022 5.68843 18.097 0.763428 12.022 0.763428Z" fill="#5F5F5F"/>
</g>
<defs>
<clipPath id="clip0_102_11">
<rect width="24" height="24" fill="white" transform="translate(0.0219727 0.763428)"/>
</clipPath>
</defs>
</svg>
