<svg width="40" height="48" viewBox="0 0 40 48" fill="none" xmlns="http://www.w3.org/2000/svg">
<circle cx="20" cy="22" r="20" fill="#E60023"/>
<path d="M14 25.4C13.2267 25.4 12.56 25.2 12 24.8C11.44 24.4 11.0133 23.8267 10.72 23.08C10.4533 22.3333 10.3333 21.4667 10.36 20.48C10.36 19.28 10.6667 18.0933 11.28 16.92C11.8933 15.7467 12.84 14.7867 14.12 14.04C15.4 13.2667 17 12.88 18.92 12.88C20.36 12.88 21.72 12.9867 23 13.2C24.28 13.4133 25.52 13.64 26.72 13.88C27.92 14.0933 29.12 14.2 30.32 14.2C31.3333 14.2 32.24 14.12 33.04 13.96C33.84 13.8 34.5867 13.3867 35.28 12.72C35.4933 12.9333 35.6667 13.2267 35.8 13.6C35.9333 13.9467 36 14.32 36 14.72C36 15.28 35.8667 15.8267 35.6 16.36C35.3333 16.8933 34.9067 17.3467 34.32 17.72C33.76 18.0667 33.0133 18.24 32.08 18.24C31.2533 18.24 30.4267 18.1333 29.6 17.92C28.8 17.68 27.9733 17.3733 27.12 17C26.2933 16.6267 25.36 16.2267 24.32 15.8L24.28 15.64C23.56 15.3467 22.8667 15.1467 22.2 15.04C21.56 14.9067 20.8533 14.84 20.08 14.84C18.5067 14.84 17.2667 15.3467 16.36 16.36C15.4533 17.3467 14.9867 18.76 14.96 20.6C14.9333 21.3733 15 22.12 15.16 22.84C15.32 23.56 15.5867 24.2533 15.96 24.92C15.6667 25.08 15.3333 25.2 14.96 25.28C14.6133 25.36 14.2933 25.4 14 25.4ZM18.72 41.84C18.1867 41.84 17.6933 41.7467 17.24 41.56C16.7867 41.3733 16.4933 41.12 16.36 40.8C16.68 40.5867 16.96 40.32 17.2 40C17.44 39.68 17.64 39.28 17.8 38.8C17.96 38.2933 18.1067 37.68 18.24 36.96L21.36 20.88C21.7333 18.9867 22.3467 17.5733 23.2 16.64C24.08 15.68 25.4133 15.1733 27.2 15.12L22.76 37.84C22.5733 38.7733 22.3067 39.5467 21.96 40.16C21.64 40.7467 21.2133 41.1733 20.68 41.44C20.1467 41.7067 19.4933 41.84 18.72 41.84Z" fill="white"/>
</svg>
